PathFileType	4	(X/Y/Z)	./resultDataOpenSim/trcMotMarkerGrf/sub09/qtm-15-08.trc
DataRate	CameraRate	NumFrames	NumMarkers	Units	OrigDataRate	OrigDataStartFrame	OrigNumFrames
250.000000	250.000000	12	24	m	250.000000	292	466
Frame#	Time	L.Toe.Tip			R.Toe.Tip			L.Ankle.Lat			R.Ankle.Lat			L.Ankle.Med			R.Ankle.Med			L.Heel			R.Heel			L.Knee.Lat			R.Knee.Lat			L.Knee.Med			R.Knee.Med			L.Thigh.Upper			R.Thigh.Upper			L.ASIS			R.ASIS			V.Sacral			L.Acromium			R.Acromium			C7			L.Elbow			R.Elbow			L.Wrist.Lat			R.Wrist.Lat
		X1	Y1	Z1	X2	Y2	Z2	X3	Y3	Z3	X4	Y4	Z4	X5	Y5	Z5	X6	Y6	Z6	X7	Y7	Z7	X8	Y8	Z8	X9	Y9	Z9	X10	Y10	Z10	X11	Y11	Z11	X12	Y12	Z12	X13	Y13	Z13	X14	Y14	Z14	X15	Y15	Z15	X16	Y16	Z16	X17	Y17	Z17	X18	Y18	Z18	X19	Y19	Z19	X20	Y20	Z20	X21	Y21	Z21	X22	Y22	Z22	X23	Y23	Z23	X24	Y24	Z24

292	1.164	0.16248088	-0.042523619	0.01527581	1.0497029	0.043043817	-0.0082194482	0.11922773	0.10689534	-0.064618719	0.90379693	0.051518843	0.030311173	0.15876628	0.10860019	0.024980273	0.90697981	0.096043299	-0.059507854	0.063199362	0.14277824	-0.016132743	0.83425132	0.031689397	-0.018881678	0.39992857	0.4152832	-0.12876222	0.8786907	0.50654147	0.10606934	0.42436855	0.40376253	-0.0064280857	0.8540594	0.4897433	-0.016673153	0.55624819	0.79665772	-0.16911211	0.6452963	0.82416655	0.19093647	0.67517311	0.86489101	-0.13666459	0.70426687	0.89742024	0.099067668	0.53110653	0.95208421	-8.425554e-05	0.73822445	1.3307062	-0.16838206	0.69689144	1.3504971	0.15741961	0.64512616	1.3922367	-0.01540013	0.66310164	0.94981017	-0.22611838	0.46968815	1.0938854	0.24681502	0.93341028	0.96014528	-0.1589997	0.45162488	0.83887778	0.33727426
293	1.168	0.16371923	-0.041274682	0.014773624	1.0502949	0.042297912	-0.0094328584	0.1237647	0.10945603	-0.064955247	0.90389205	0.051748055	0.029995897	0.16419956	0.11013859	0.024216478	0.90750442	0.095494226	-0.060156806	0.069135757	0.14663084	-0.016065097	0.83462895	0.031810476	-0.018999221	0.40969024	0.41309142	-0.13030238	0.88834209	0.50720497	0.10516588	0.43429304	0.40124448	-0.0082105782	0.86301796	0.49125747	-0.017591999	0.56413481	0.79469746	-0.16934129	0.65178302	0.82358531	0.19128147	0.68281598	0.86320471	-0.13623968	0.71147709	0.89651326	0.099327106	0.53876003	0.95047548	0.00053663588	0.74474415	1.3293857	-0.16882281	0.70413588	1.3486887	0.15744324	0.65200895	1.3909017	-0.01534737	0.66889825	0.9487191	-0.22617044	0.4777015	1.0916813	0.24709284	0.93945943	0.95658704	-0.15964567	0.45939664	0.83668186	0.33733318
294	1.172	0.16487717	-0.039974391	0.014230262	1.0507919	0.041913582	-0.010094173	0.12852954	0.11220976	-0.065278942	0.90394951	0.052007455	0.029791826	0.16989567	0.11174573	0.023465933	0.90784904	0.094951589	-0.060628973	0.075456408	0.15074203	-0.015880757	0.83495628	0.031908714	-0.018934819	0.419776	0.41080119	-0.13201778	0.89756565	0.50765461	0.10422221	0.44441331	0.39861795	-0.0099598533	0.8717245	0.49266429	-0.018622281	0.57205631	0.79277953	-0.16949282	0.65823024	0.82309975	0.19169921	0.69036377	0.86156971	-0.13597731	0.71868683	0.89581015	0.099697283	0.54637242	0.94890487	0.0010104771	0.75129134	1.3280747	-0.16924088	0.71129435	1.3469862	0.15745664	0.65884869	1.3896387	-0.015316375	0.67458315	0.94768719	-0.22621845	0.48573422	1.0894488	0.2473468	0.94545662	0.95293613	-0.16037021	0.46730349	0.83445763	0.33739175
295	1.176	0.16592938	-0.038542583	0.013636877	1.0513589	0.041514817	-0.010300799	0.13355841	0.11515791	-0.065665974	0.90417236	0.052222079	0.029691139	0.1758344	0.11343142	0.022706751	0.90821496	0.094534689	-0.060912554	0.082173783	0.1551246	-0.015657863	0.83525194	0.032053996	-0.018699772	0.43016906	0.40841518	-0.13391678	0.90628606	0.50782251	0.1032938	0.45466074	0.39585667	-0.011617675	0.8801636	0.49399736	-0.019666173	0.58002199	0.79087143	-0.16954536	0.66473954	0.82268092	0.19213403	0.69780046	0.85998711	-0.13575309	0.72592155	0.89532695	0.10016514	0.55380113	0.94744782	0.0011066848	0.75785864	1.3267786	-0.1696075	0.71836253	1.3453956	0.15746871	0.66562364	1.3884615	-0.01528101	0.68025983	0.94670015	-0.22612987	0.49376618	1.0871851	0.24758356	0.95138597	0.9491793	-0.16115458	0.47537061	0.8322157	0.33745103
296	1.18	0.1668659	-0.036864714	0.012995136	1.0519637	0.04101939	-0.010298898	0.1388669	0.11831333	-0.06614128	0.90455986	0.052339136	0.029636687	0.18198512	0.11522481	0.021932237	0.90862503	0.094292338	-0.061081608	0.089277329	0.15978552	-0.015502099	0.83550567	0.0322121	-0.018433408	0.44087988	0.40595798	-0.13598716	0.91442018	0.50764013	0.10238683	0.46499077	0.39296592	-0.013200991	0.8883192	0.49521857	-0.020692887	0.58802219	0.78893893	-0.16945975	0.6713708	0.82232062	0.19252821	0.70516903	0.85851818	-0.13541354	0.73316804	0.89505825	0.1006966	0.561043	0.9461027	0.0009924581	0.76442929	1.3255064	-0.16990614	0.7253335	1.3439245	0.15747805	0.67231199	1.3873801	-0.015237664	0.68596078	0.94574441	-0.22587298	0.50176383	1.0848932	0.24781153	0.95723116	0.94531481	-0.16198436	0.48360494	0.82996411	0.33750176
297	1.184	0.16769801	-0.03480148	0.012320623	1.0524859	0.040541359	-0.010327387	0.14445832	0.12170985	-0.066683703	0.90501976	0.052349204	0.029551248	0.18830646	0.11718859	0.02115268	0.90902868	0.094212967	-0.061241453	0.096740972	0.16474074	-0.015500978	0.83569866	0.032337746	-0.018258441	0.45191989	0.40346598	-0.13820161	0.92190366	0.50707932	0.1014861	0.47541742	0.38995316	-0.0147725	0.89616137	0.49621557	-0.021724892	0.59602933	0.78697831	-0.16923623	0.67813262	0.82204054	0.19284119	0.71251436	0.85723455	-0.13485822	0.74037401	0.89497091	0.10124018	0.5681596	0.94485378	0.00091979933	0.77098181	1.3242813	-0.17014373	0.73219328	1.342592	0.15747416	0.67890139	1.386396	-0.015193019	0.69165867	0.94481399	-0.2255725	0.50969292	1.0825933	0.24802987	0.96297966	0.94136191	-0.16285738	0.49199183	0.82771032	0.33752641
298	1.188	0.16848542	-0.032214999	0.011652111	1.0528609	0.040190277	-0.010530257	0.15034502	0.12538274	-0.06727296	0.90550332	0.052265468	0.029352433	0.19476399	0.11939489	0.020380025	0.9094017	0.094225761	-0.061491977	0.10452208	0.1699944	-0.015683899	0.83581666	0.032419247	-0.018219602	0.46321801	0.40096915	-0.14044758	0.92873388	0.50615872	0.10059638	0.48602056	0.3868412	-0.01644012	0.9036488	0.49684847	-0.022776303	0.60400561	0.78502386	-0.16896257	0.68499244	0.82187102	0.19305868	0.71981078	0.85613131	-0.13414198	0.74748478	0.89500714	0.10175021	0.57518681	0.94371874	0.00097693442	0.77750089	1.3231272	-0.17033248	0.73893336	1.3414164	0.15744753	0.6854008	1.3855095	-0.015143413	0.69731269	0.94391306	-0.22539119	0.51755285	1.0803222	0.2482282	0.96862422	0.93734169	-0.1637765	0.50051013	0.82546152	0.3375088
299	1.192	0.16937275	-0.02904572	0.01104894	1.0531029	0.039971469	-0.010924822	0.15654309	0.12934999	-0.067911706	0.90603018	0.052097434	0.028985937	0.20134149	0.12189603	0.019612586	0.9097608	0.094225387	-0.061876277	0.11256054	0.17551467	-0.016025073	0.83586501	0.032456669	-0.018307519	0.47458983	0.39847117	-0.14240499	0.93500138	0.50493949	0.099755405	0.49684292	0.38367436	-0.018269788	0.91074788	0.49702149	-0.023830461	0.61192148	0.78311873	-0.16875349	0.69189465	0.82181802	0.19318628	0.72698179	0.85513902	-0.13342136	0.75448888	0.89510454	0.10221263	0.58210041	0.94273701	0.0010540103	0.78398111	1.3220537	-0.17047711	0.74555925	1.340398	0.15739602	0.69182736	1.3847223	-0.01508444	0.70289749	0.94306798	-0.22539	0.5253755	1.0781148	0.24839929	0.97416418	0.93326299	-0.1647348	0.50915539	0.82322501	0.33744108
300	1.196	0.17057479	-0.025360592	0.010539757	1.0532551	0.039832767	-0.011414729	0.16303754	0.13360281	-0.068600783	0.90660457	0.051864969	0.028485105	0.20803477	0.12472901	0.018838832	0.9101289	0.094128746	-0.062339705	0.12078868	0.18124701	-0.016483932	0.83587176	0.032447861	-0.01848338	0.48588973	0.39595382	-0.14375352	0.9408777	0.50351236	0.099004529	0.50782121	0.38051849	-0.020167818	0.91743513	0.49673398	-0.024853261	0.61976947	0.7812799	-0.16865087	0.69878956	0.82185872	0.19324465	0.73398081	0.8542134	-0.13279756	0.76143303	0.89523162	0.10265626	0.58883029	0.9419387	0.00091945007	0.79042364	1.3210593	-0.17058704	0.75208132	1.3395245	0.15732038	0.69818778	1.3840315	-0.015032646	0.70840406	0.94231777	-0.22553723	0.53318168	1.0759933	0.24854882	0.97960076	0.9291284	-0.16572127	0.51794534	0.82101412	0.33732194
301	1.2	0.17229706	-0.021245986	0.010083904	1.0533566	0.039725889	-0.01184699	0.16976071	0.13810072	-0.069313988	0.90715392	0.051621694	0.027990383	0.21484432	0.12793698	0.01805077	0.91051231	0.09392096	-0.062772707	0.12915053	0.18715147	-0.017057504	0.83586807	0.032399985	-0.0186873	0.49717512	0.39342876	-0.14461274	0.94656137	0.50198739	0.098362732	0.51889915	0.37746142	-0.021927373	0.92370208	0.49607273	-0.025813597	0.62755416	0.77950174	-0.16863101	0.70567247	0.82196798	0.19327536	0.74081109	0.85336593	-0.13227617	0.76837477	0.89539362	0.10312633	0.59532149	0.94132418	0.00037964467	0.7968334	1.3201459	-0.17068256	0.75850413	1.3387923	0.15721849	0.70448376	1.3834298	-0.015029241	0.71383264	0.94169225	-0.22578885	0.54096565	1.07398	0.2486925	0.98493096	0.92494749	-0.16673971	0.52690227	0.81885333	0.33715075
302	1.204	0.17465723	-0.016671766	0.0096364386	1.0534296	0.039626171	-0.01210972	0.17663031	0.14278561	-0.070016969	0.90757461	0.051426325	0.027671123	0.22177112	0.13157319	0.017246495	0.91089898	0.093650738	-0.063102826	0.13762094	0.19322008	-0.017807349	0.83586194	0.032333723	-0.018854073	0.50861954	0.39095105	-0.14545667	0.95220752	0.50048838	0.097829634	0.53014566	0.37457713	-0.023442505	0.92957717	0.49516343	-0.026698438	0.63526968	0.77778489	-0.1686673	0.71259242	0.82213688	0.19333331	0.74749211	0.85262707	-0.13183203	0.7752802	0.8955587	0.10361535	0.60160745	0.94086207	-0.00051358888	0.80320659	1.3193241	-0.1707823	0.76482725	1.3382106	0.15708725	0.71071868	1.3829216	-0.015122699	0.71918833	0.94120085	-0.2261157	0.5487116	1.0721095	0.24884476	0.99014665	0.9207434	-0.16780484	0.53603162	0.81677301	0.33692468
303	1.208	0.17767697	-0.011542192	0.0092305196	1.0534707	0.039536274	-0.0122089	0.18362745	0.14761972	-0.0707109	0.9078157	0.051298178	0.027614236	0.2288103	0.13568427	0.016425767	0.91125969	0.093384674	-0.063324127	0.14620738	0.19946121	-0.018831348	0.8358364	0.032271345	-0.018940822	0.52031183	0.3885644	-0.14656328	0.95786861	0.49912907	0.097380913	0.54166639	0.37188751	-0.02479556	0.9351352	0.49413206	-0.027514294	0.64288218	0.77615072	-0.16872382	0.71959787	0.82235758	0.19344628	0.75403866	0.85201476	-0.13145213	0.78200358	0.89560485	0.10403811	0.607814	0.9405118	-0.0014052441	0.80951784	1.3186095	-0.17089605	0.77105298	1.3377897	0.15692556	0.71689072	1.3825258	-0.01532847	0.72447814	0.94083357	-0.22649797	0.55637537	1.0704079	0.24899106	0.99523714	0.91654623	-0.16892462	0.54531553	0.81479778	0.33663857
